<svg width="1024" height="1024" viewBox="0 0 1024 1024" xmlns="http://www.w3.org/2000/svg">
  <!-- Background -->
  <rect width="1024" height="1024" fill="#FFFFFF"/>

  <!-- Life Weeks Grid Pattern -->
  <!-- This creates a simplified grid of life weeks -->
  <!-- Green color represents the weeks that have passed -->

  <!-- Define the grid parameters -->
  <!-- Grid: 12x12 squares to represent a simplified life grid -->
  <!-- Square size: 60px, Gap: 20px -->

  <!-- Row 1 -->
  <rect x="142" y="142" width="60" height="60" rx="8" fill="#34C759"/>
  <rect x="222" y="142" width="60" height="60" rx="8" fill="#34C759"/>
  <rect x="302" y="142" width="60" height="60" rx="8" fill="#34C759"/>
  <rect x="382" y="142" width="60" height="60" rx="8" fill="#34C759"/>
  <rect x="462" y="142" width="60" height="60" rx="8" fill="#34C759"/>
  <rect x="542" y="142" width="60" height="60" rx="8" fill="#34C759"/>
  <rect x="622" y="142" width="60" height="60" rx="8" fill="#34C759"/>
  <rect x="702" y="142" width="60" height="60" rx="8" fill="#34C759"/>
  <rect x="782" y="142" width="60" height="60" rx="8" fill="#34C759"/>

  <!-- Row 2 -->
  <rect x="142" y="222" width="60" height="60" rx="8" fill="#34C759"/>
  <rect x="222" y="222" width="60" height="60" rx="8" fill="#34C759"/>
  <rect x="302" y="222" width="60" height="60" rx="8" fill="#34C759"/>
  <rect x="382" y="222" width="60" height="60" rx="8" fill="#34C759"/>
  <rect x="462" y="222" width="60" height="60" rx="8" fill="#34C759"/>
  <rect x="542" y="222" width="60" height="60" rx="8" fill="#34C759"/>
  <rect x="622" y="222" width="60" height="60" rx="8" fill="#34C759"/>
  <rect x="702" y="222" width="60" height="60" rx="8" fill="#34C759"/>
  <rect x="782" y="222" width="60" height="60" rx="8" fill="#34C759"/>

  <!-- Row 3 -->
  <rect x="142" y="302" width="60" height="60" rx="8" fill="#34C759"/>
  <rect x="222" y="302" width="60" height="60" rx="8" fill="#34C759"/>
  <rect x="302" y="302" width="60" height="60" rx="8" fill="#34C759"/>
  <rect x="382" y="302" width="60" height="60" rx="8" fill="#34C759"/>
  <rect x="462" y="302" width="60" height="60" rx="8" fill="#34C759"/>
  <rect x="542" y="302" width="60" height="60" rx="8" fill="#34C759"/>
  <rect x="622" y="302" width="60" height="60" rx="8" fill="#34C759"/>
  <rect x="702" y="302" width="60" height="60" rx="8" fill="#A8E6CF"/>
  <rect x="782" y="302" width="60" height="60" rx="8" fill="#E8E8ED"/>

  <!-- Row 4 -->
  <rect x="142" y="382" width="60" height="60" rx="8" fill="#34C759"/>
  <rect x="222" y="382" width="60" height="60" rx="8" fill="#34C759"/>
  <rect x="302" y="382" width="60" height="60" rx="8" fill="#34C759"/>
  <rect x="382" y="382" width="60" height="60" rx="8" fill="#34C759"/>
  <rect x="462" y="382" width="60" height="60" rx="8" fill="#34C759"/>
  <rect x="542" y="382" width="60" height="60" rx="8" fill="#34C759"/>
  <rect x="622" y="382" width="60" height="60" rx="8" fill="#E8E8ED"/>
  <rect x="702" y="382" width="60" height="60" rx="8" fill="#E8E8ED"/>
  <rect x="782" y="382" width="60" height="60" rx="8" fill="#E8E8ED"/>

  <!-- Row 5 -->
  <rect x="142" y="462" width="60" height="60" rx="8" fill="#34C759"/>
  <rect x="222" y="462" width="60" height="60" rx="8" fill="#34C759"/>
  <rect x="302" y="462" width="60" height="60" rx="8" fill="#34C759"/>
  <rect x="382" y="462" width="60" height="60" rx="8" fill="#34C759"/>
  <rect x="462" y="462" width="60" height="60" rx="8" fill="#E8E8ED"/>
  <rect x="542" y="462" width="60" height="60" rx="8" fill="#E8E8ED"/>
  <rect x="622" y="462" width="60" height="60" rx="8" fill="#E8E8ED"/>
  <rect x="702" y="462" width="60" height="60" rx="8" fill="#E8E8ED"/>
  <rect x="782" y="462" width="60" height="60" rx="8" fill="#E8E8ED"/>

  <!-- Row 6 -->
  <rect x="142" y="542" width="60" height="60" rx="8" fill="#34C759"/>
  <rect x="222" y="542" width="60" height="60" rx="8" fill="#34C759"/>
  <rect x="302" y="542" width="60" height="60" rx="8" fill="#34C759"/>
  <rect x="382" y="542" width="60" height="60" rx="8" fill="#E8E8ED"/>
  <rect x="462" y="542" width="60" height="60" rx="8" fill="#E8E8ED"/>
  <rect x="542" y="542" width="60" height="60" rx="8" fill="#E8E8ED"/>
  <rect x="622" y="542" width="60" height="60" rx="8" fill="#E8E8ED"/>
  <rect x="702" y="542" width="60" height="60" rx="8" fill="#E8E8ED"/>
  <rect x="782" y="542" width="60" height="60" rx="8" fill="#E8E8ED"/>

  <!-- Row 7 -->
  <rect x="142" y="622" width="60" height="60" rx="8" fill="#34C759"/>
  <rect x="222" y="622" width="60" height="60" rx="8" fill="#34C759"/>
  <rect x="302" y="622" width="60" height="60" rx="8" fill="#E8E8ED"/>
  <rect x="382" y="622" width="60" height="60" rx="8" fill="#E8E8ED"/>
  <rect x="462" y="622" width="60" height="60" rx="8" fill="#E8E8ED"/>
  <rect x="542" y="622" width="60" height="60" rx="8" fill="#E8E8ED"/>
  <rect x="622" y="622" width="60" height="60" rx="8" fill="#E8E8ED"/>
  <rect x="702" y="622" width="60" height="60" rx="8" fill="#E8E8ED"/>
  <rect x="782" y="622" width="60" height="60" rx="8" fill="#E8E8ED"/>

  <!-- Row 8 -->
  <rect x="142" y="702" width="60" height="60" rx="8" fill="#34C759"/>
  <rect x="222" y="702" width="60" height="60" rx="8" fill="#E8E8ED"/>
  <rect x="302" y="702" width="60" height="60" rx="8" fill="#E8E8ED"/>
  <rect x="382" y="702" width="60" height="60" rx="8" fill="#E8E8ED"/>
  <rect x="462" y="702" width="60" height="60" rx="8" fill="#E8E8ED"/>
  <rect x="542" y="702" width="60" height="60" rx="8" fill="#E8E8ED"/>
  <rect x="622" y="702" width="60" height="60" rx="8" fill="#E8E8ED"/>
  <rect x="702" y="702" width="60" height="60" rx="8" fill="#E8E8ED"/>
  <rect x="782" y="702" width="60" height="60" rx="8" fill="#E8E8ED"/>

  <!-- Row 9 -->
  <rect x="142" y="782" width="60" height="60" rx="8" fill="#E8E8ED"/>
  <rect x="222" y="782" width="60" height="60" rx="8" fill="#E8E8ED"/>
  <rect x="302" y="782" width="60" height="60" rx="8" fill="#E8E8ED"/>
  <rect x="382" y="782" width="60" height="60" rx="8" fill="#E8E8ED"/>
  <rect x="462" y="782" width="60" height="60" rx="8" fill="#E8E8ED"/>
  <rect x="542" y="782" width="60" height="60" rx="8" fill="#E8E8ED"/>
  <rect x="622" y="782" width="60" height="60" rx="8" fill="#E8E8ED"/>
  <rect x="702" y="782" width="60" height="60" rx="8" fill="#E8E8ED"/>
  <rect x="782" y="782" width="60" height="60" rx="8" fill="#E8E8ED"/>
</svg>
